<?xml version="1.0" standalone="no"?>
<!DOCTYPE svg PUBLIC "-//W3C//DTD SVG 20010904//EN"
 "http://www.w3.org/TR/2001/REC-SVG-20010904/DTD/svg10.dtd">
<svg version="1.0" xmlns="http://www.w3.org/2000/svg"
 width="1024.000000pt" height="1024.000000pt" viewBox="0 0 1024.000000 1024.000000"
 preserveAspectRatio="xMidYMid meet">

<g transform="translate(0.000000,1024.000000) scale(0.100000,-0.100000)"
fill="#000000" stroke="none">
<path d="M5250 9069 c25 -4 61 -7 80 -7 29 1 26 2 -15 8 -69 11 -126 10 -65
-1z"/>
<path d="M5378 9053 c6 -2 18 -2 25 0 6 3 1 5 -13 5 -14 0 -19 -2 -12 -5z"/>
<path d="M5440 9046 c0 -2 15 -6 34 -8 19 -2 32 0 30 4 -5 8 -64 12 -64 4z"/>
<path d="M5608 9013 c7 -3 16 -2 19 1 4 3 -2 6 -13 5 -11 0 -14 -3 -6 -6z"/>
<path d="M5675 8990 c11 -5 27 -9 35 -9 13 -1 13 0 0 9 -8 5 -24 9 -35 9 l-20
0 20 -9z"/>
<path d="M6105 8962 c11 -11 23 -18 26 -16 4 2 12 -3 19 -11 11 -13 10 -14 -4
-9 -13 5 -16 0 -16 -24 0 -24 -5 -31 -27 -35 -16 -3 -30 -2 -33 2 -3 4 -12 6
-20 6 -8 -1 -26 3 -40 8 -117 43 -246 87 -254 87 -6 0 36 -19 94 -41 245 -93
437 -204 655 -380 159 -128 252 -220 374 -369 247 -302 392 -598 470 -959 50
-232 56 -296 55 -581 0 -229 -3 -282 -23 -390 -77 -432 -205 -726 -448 -1030
-87 -109 -339 -360 -425 -425 -108 -81 -306 -201 -430 -260 -219 -105 -542
-195 -817 -226 -65 -7 -183 -9 -315 -6 -176 4 -232 9 -336 31 -341 73 -604
179 -880 356 -183 117 -257 175 -390 309 -269 270 -432 515 -560 846 -44 113
-72 215 -115 415 -18 83 -23 98 -19 55 3 -33 12 -89 20 -125 8 -36 19 -85 24
-110 28 -137 45 -191 81 -262 6 -13 5 -18 -3 -18 -10 0 -10 -2 1 -9 10 -6 11
-13 2 -29 -14 -26 -14 -42 -1 -42 6 0 10 10 10 22 0 34 17 8 24 -37 6 -38 6
-39 -9 -20 -16 19 -16 19 -11 -7 3 -20 0 -28 -10 -28 -9 0 -14 11 -14 30 0 27
-3 30 -31 30 -20 0 -28 4 -23 12 4 6 3 8 -4 5 -5 -4 -8 -16 -5 -27 3 -11 10
-17 16 -13 5 3 7 1 4 -4 -4 -6 10 -48 30 -94 118 -275 419 -648 703 -874 344
-274 779 -465 1204 -527 178 -26 514 -31 681 -9 260 33 488 96 735 204 423
184 813 504 1072 882 175 255 292 542 362 887 64 313 70 571 22 894 -61 404
-174 703 -386 1019 -244 365 -614 697 -981 880 -50 25 -68 31 -54 17z m-3345
-3338 c0 -8 -5 -12 -10 -9 -6 4 -8 11 -5 16 9 14 15 11 15 -7z"/>
<path d="M4888 8850 c-139 -12 -372 -59 -518 -106 -305 -97 -631 -289 -867
-511 -87 -82 -237 -262 -306 -368 -129 -198 -242 -486 -298 -760 -15 -75 -39
-366 -39 -482 0 -307 85 -651 231 -933 72 -140 230 -359 347 -482 322 -338
786 -580 1258 -655 171 -27 550 -25 709 4 324 60 659 196 875 356 117 86 271
221 325 285 190 224 352 571 363 778 5 107 -6 153 -49 189 -42 34 -89 33 -128
-2 -24 -22 -38 -53 -66 -153 -54 -185 -110 -308 -210 -460 -198 -300 -481
-520 -808 -629 -187 -62 -257 -77 -430 -92 -306 -25 -615 40 -775 163 -73 57
-138 138 -178 223 -65 141 -65 136 -62 750 3 481 5 557 18 565 51 33 130 53
205 54 76 0 103 -7 187 -52 4 -2 10 18 13 45 11 81 33 136 76 188 96 116 124
175 77 161 -146 -43 -179 -47 -375 -53 l-203 -6 0 566 c0 599 2 629 48 726 34
73 155 199 224 234 29 14 46 26 38 27 -24 0 -139 -35 -210 -64 -36 -15 -94
-38 -130 -50 -205 -73 -485 -272 -604 -430 -74 -99 -176 -267 -205 -337 -27
-67 -26 -33 -14 -639 8 -369 7 -552 -3 -765 l-13 -280 30 -64 c27 -60 124
-204 208 -311 122 -156 229 -252 434 -389 72 -49 96 -70 62 -57 -9 3 -20 -3
-27 -14 -7 -11 -18 -20 -25 -20 -7 0 -13 -5 -13 -10 0 -26 -184 97 -296 198
-96 85 -320 359 -404 492 -139 222 -219 424 -262 658 -30 163 -30 422 0 617
34 217 98 434 177 595 37 74 77 149 90 166 13 17 37 54 53 81 42 71 54 85 182
214 84 85 148 137 239 198 231 154 540 280 776 317 137 21 488 24 655 5 378
-43 669 -186 879 -432 89 -106 143 -196 188 -321 33 -92 37 -113 37 -203 1
-122 -27 -217 -89 -309 -83 -123 -83 -159 2 -136 91 25 244 212 304 371 25 66
49 207 49 288 0 143 -46 310 -113 415 -89 138 -300 305 -535 425 -155 78 -265
119 -432 161 -224 56 -461 77 -672 60z m-948 -430 c-8 -5 -19 -10 -25 -10 -5
0 -3 5 5 10 8 5 20 10 25 10 6 0 3 -5 -5 -10z m-70 -34 c0 -2 -7 -7 -16 -10
-8 -3 -12 -2 -9 4 6 10 25 14 25 6z m-160 -110 c0 -3 -15 -14 -32 -26 l-33
-22 30 26 c31 27 35 29 35 22z m428 -116 c-22 -30 -35 -41 -22 -17 9 16 36 47
41 47 2 0 -6 -13 -19 -30z m-803 -277 c-30 -43 -73 -109 -95 -148 -52 -94 -66
-112 -34 -45 30 62 101 176 146 233 51 64 41 40 -17 -40z m-194 -340 c-12 -20
-14 -14 -5 12 4 9 9 14 11 11 3 -2 0 -13 -6 -23z m496 -275 c-2 -18 -4 -4 -4
32 0 36 2 50 4 33 2 -18 2 -48 0 -65z m0 -425 c-1 -49 -3 -9 -3 87 0 96 2 136
3 88 2 -49 2 -127 0 -175z"/>
<path d="M3304 8348 l-29 -33 33 29 c30 28 37 36 29 36 -2 0 -16 -15 -33 -32z"/>
<path d="M5804 7740 c-105 -53 -173 -148 -181 -254 -5 -81 3 -91 72 -90 69 0
77 8 64 60 -9 34 -8 47 6 73 24 47 98 91 153 91 93 0 152 -55 160 -147 6 -66
-3 -77 -107 -137 -111 -64 -115 -69 -119 -186 l-4 -98 -72 -27 c-154 -58 -187
-72 -361 -148 -99 -43 -205 -88 -235 -99 -114 -44 -227 -124 -254 -182 -33
-70 -8 -143 56 -164 13 -4 419 -7 903 -6 879 0 880 0 921 22 75 39 92 120 40
190 -55 75 -111 107 -434 247 -349 150 -386 167 -399 178 -8 5 -13 33 -13 66
l0 56 51 35 c143 97 190 215 143 353 -20 59 -91 139 -147 166 -60 29 -185 29
-243 1z m174 -819 c55 -27 138 -64 417 -185 263 -115 335 -150 335 -163 0 -11
-136 -13 -782 -13 -746 0 -888 3 -888 20 0 9 -3 8 704 294 48 20 100 45 115
56 33 25 31 25 99 -9z"/>
<path d="M6804 7390 c-12 -5 -25 -14 -30 -21 -5 -8 -2 -11 7 -7 27 10 19 -34
-11 -69 -17 -19 -30 -38 -30 -44 0 -6 -5 -7 -10 -4 -6 4 -9 3 -8 -2 2 -5 -8
-22 -21 -38 l-24 -30 5 48 c3 26 14 57 23 67 10 11 16 22 13 25 -14 14 -42
-55 -46 -112 -5 -72 8 -116 49 -173 71 -98 236 -109 320 -20 100 105 97 231
-8 332 -21 20 -51 42 -66 47 -34 13 -133 13 -163 1z m129 -90 c25 -20 26 -21
9 -53 -9 -17 -21 -35 -27 -39 -7 -5 -7 -8 0 -8 6 0 2 -5 -7 -11 -10 -5 -18
-16 -18 -22 0 -14 -54 -37 -87 -37 -61 0 -69 134 -10 175 32 22 109 19 140 -5z"/>
<path d="M1810 4703 c-43 -36 -53 -66 -36 -108 30 -71 101 -82 151 -23 48 57
42 102 -18 138 -42 26 -59 25 -97 -7z"/>
<path d="M2125 4699 c-48 -43 -49 -87 -1 -135 46 -46 83 -46 125 1 42 49 41
87 -3 131 -43 43 -74 44 -121 3z"/>
<path d="M7514 4720 c-33 -13 -64 -59 -64 -96 0 -44 49 -94 93 -94 60 1 114
68 96 120 -20 55 -80 89 -125 70z"/>
<path d="M2449 4691 c-39 -40 -39 -79 2 -126 47 -53 112 -47 144 15 23 44 18
75 -16 109 -41 42 -89 42 -130 2z"/>
<path d="M7837 4700 c-67 -53 -26 -169 58 -169 80 -1 125 106 69 163 -33 33
-89 35 -127 6z"/>
<path d="M8178 4713 c7 -3 16 -2 19 1 4 3 -2 6 -13 5 -11 0 -14 -3 -6 -6z"/>
<path d="M8241 4678 c16 -18 29 -39 30 -48 0 -10 2 -11 6 -2 5 14 -42 82 -57
82 -5 0 4 -15 21 -32z"/>
<path d="M1360 3810 c0 -5 12 -17 28 -28 l27 -20 3 -357 c3 -339 2 -359 -17
-390 l-19 -33 36 10 c21 6 152 9 321 6 l286 -3 0 93 0 92 -212 0 -213 0 0 76
0 76 180 -4 180 -3 0 84 0 83 -135 -7 c-74 -4 -155 -4 -180 -1 l-45 7 0 70 0
69 209 0 209 0 -1 88 0 87 -294 -3 c-165 -1 -309 2 -329 7 -19 5 -34 6 -34 1z"/>
<path d="M7605 3809 c-38 -5 -95 -6 -125 -3 -54 6 -55 6 -37 -13 15 -17 17
-44 17 -239 -1 -189 -3 -216 -14 -201 -8 10 -50 60 -94 110 -44 51 -127 148
-185 216 l-107 124 -90 2 -90 1 22 -24 23 -24 0 -367 c0 -266 -3 -372 -12
-382 -10 -12 7 -14 113 -14 68 0 124 1 124 3 0 1 -9 11 -20 22 -19 19 -20 33
-20 230 0 116 3 210 6 210 3 0 17 -15 32 -32 98 -118 362 -396 396 -417 17
-11 47 -22 66 -26 l35 -6 -3 386 -3 387 26 34 c14 19 22 33 18 33 -4 -1 -39
-6 -78 -10z"/>
<path d="M2457 3783 l28 -23 -3 -352 c-3 -283 -6 -359 -18 -382 -8 -16 -14
-30 -14 -30 0 -1 142 -2 315 -3 l315 -2 0 97 0 97 -200 -3 -201 -3 3 298 c2
164 6 305 11 313 6 13 -11 15 -128 15 l-136 0 28 -22z"/>
<path d="M3468 3777 l27 -29 -3 -366 c-2 -202 -7 -371 -12 -377 -5 -7 94 -10
308 -11 l317 0 -3 94 -3 94 -210 -4 -209 -3 0 78 0 78 175 -3 c200 -3 185 -12
185 100 l0 62 -180 0 -181 0 3 72 3 73 203 -4 202 -3 0 69 c0 37 3 77 6 88 5
20 0 20 -325 20 l-330 0 27 -28z"/>
<path d="M4813 3795 c-132 -29 -239 -111 -291 -223 -24 -51 -27 -68 -27 -172
0 -104 3 -121 27 -172 52 -112 107 -162 222 -204 91 -33 176 -40 256 -21 36 9
90 15 120 14 30 -1 72 2 93 6 l37 8 0 185 c0 102 4 193 10 203 9 17 -2 18
-173 24 -100 3 -183 5 -183 4 -1 -1 -4 -37 -8 -79 l-7 -78 91 7 90 6 0 -52 c0
-51 -1 -52 -37 -68 -141 -61 -306 10 -347 148 -29 96 -15 173 41 231 83 86
222 104 316 40 57 -38 68 -39 93 -10 10 11 38 33 62 48 l43 28 -38 31 c-56 46
-150 90 -218 101 -75 12 -95 12 -172 -5z"/>
<path d="M5923 3758 c-6 -29 -45 -138 -86 -243 -41 -104 -98 -251 -127 -325
-29 -74 -61 -147 -71 -162 -11 -14 -19 -28 -19 -30 0 -1 49 -3 108 -3 l108 0
23 77 c18 59 28 78 45 82 32 9 299 7 313 -2 7 -4 24 -39 37 -76 14 -38 26 -70
28 -71 2 -2 51 -5 109 -7 l106 -3 -24 35 c-13 20 -52 108 -87 196 -102 255
-131 322 -190 446 -31 64 -56 121 -56 127 0 7 -36 11 -103 11 l-103 0 -11 -52z
m171 -273 c39 -93 62 -163 55 -169 -2 -2 -50 -6 -106 -8 l-103 -5 6 26 c6 25
80 217 90 233 12 19 24 2 58 -77z"/>
<path d="M8041 3788 c5 -9 9 -50 9 -91 l0 -75 120 5 121 6 -3 -304 c-2 -167
-6 -311 -11 -319 -6 -13 9 -15 112 -15 101 0 118 2 108 14 -15 17 -27 349 -19
509 l5 112 124 0 123 0 0 74 c0 41 2 80 5 88 4 11 -58 13 -349 13 -329 0 -353
-1 -345 -17z"/>
<path d="M3311 2433 c4 -87 7 -159 8 -160 0 -2 51 -3 112 -3 l110 0 -3 33 -3
32 -72 3 c-69 3 -73 4 -73 26 0 21 6 24 60 30 58 7 60 8 60 36 0 30 0 30 -60
30 -33 0 -61 5 -61 10 -6 45 -6 45 66 50 l70 5 3 33 3 32 -113 0 -113 0 6
-157z"/>
<path d="M3985 2571 c-58 -27 -86 -62 -92 -115 -7 -60 1 -89 38 -131 57 -65
146 -67 218 -6 32 28 32 30 13 40 -26 14 -59 14 -67 1 -3 -5 -24 -10 -46 -10
-95 0 -123 112 -39 155 39 20 63 19 85 -5 23 -25 26 -25 59 1 l26 21 -22 17
c-37 29 -85 51 -110 51 -13 0 -41 -9 -63 -19z"/>
<path d="M4365 2571 c-22 -10 -55 -34 -73 -55 -27 -31 -32 -45 -32 -86 0 -46
4 -54 48 -99 61 -63 103 -72 170 -39 59 29 84 64 90 126 6 64 -16 105 -76 143
-53 34 -72 35 -127 10z m106 -80 c35 -35 38 -77 9 -114 -28 -35 -52 -41 -94
-23 -45 19 -73 68 -57 102 12 27 67 64 94 64 10 0 32 -13 48 -29z"/>
<path d="M4678 2430 l-3 -160 33 0 32 0 0 88 0 87 40 -63 c22 -35 46 -62 53
-60 6 2 27 33 44 68 l33 65 0 -55 c0 -30 3 -72 6 -92 6 -34 10 -38 35 -38 l29
0 0 155 0 155 -34 0 c-31 0 -38 -6 -79 -70 l-45 -70 -37 65 c-33 60 -62 85
-95 85 -5 0 -10 -72 -12 -160z"/>
<path d="M5538 2433 l3 -158 105 -1 104 -1 0 34 0 33 -70 0 c-68 0 -70 1 -70
25 0 23 3 25 49 25 53 0 87 21 77 47 -3 8 -6 17 -6 19 0 2 -27 4 -60 4 l-60 0
0 30 0 30 70 0 70 0 0 35 0 35 -107 0 -108 0 3 -157z"/>
<path d="M5893 2583 c-23 -4 -23 -7 -23 -154 0 -82 3 -149 8 -149 4 0 17 -3
29 -6 20 -6 22 -2 25 47 3 48 5 54 23 51 11 -2 40 -24 65 -48 44 -42 102 -70
122 -58 5 3 -11 28 -36 54 -26 27 -46 55 -46 63 0 7 11 24 25 37 34 32 35 97
2 128 -39 36 -116 50 -194 35z m152 -79 c9 -9 14 -21 12 -28 -6 -19 -50 -36
-87 -34 -31 3 -35 6 -38 35 -2 23 1 32 15 36 39 10 82 6 98 -9z"/>
<path d="M6325 2583 c-58 -14 -125 -100 -125 -160 0 -83 125 -177 191 -143 29
15 69 51 69 61 0 8 -52 39 -65 39 -3 0 -5 -6 -5 -14 0 -21 -22 -25 -56 -11
-40 17 -57 40 -56 77 2 60 77 103 108 61 12 -17 14 -17 48 1 20 11 36 22 36
26 0 13 -35 39 -73 55 -38 16 -39 16 -72 8z"/>
<path d="M6644 2583 l-61 -4 -6 -97 c-4 -53 -7 -122 -7 -152 l0 -55 110 0 110
0 0 33 0 32 -59 0 c-72 0 -91 6 -91 31 0 14 7 19 28 19 51 0 101 12 106 26 13
33 -5 44 -70 44 l-64 0 0 30 0 29 73 3 72 3 0 30 c0 28 -2 30 -40 31 -22 0
-67 -1 -101 -3z"/>
<path d="M5112 2425 l-4 -155 37 0 37 0 -3 84 c-2 46 -1 82 4 79 4 -2 16 -21
26 -41 19 -37 57 -79 65 -71 2 2 20 32 40 67 21 34 38 62 40 62 1 0 0 -40 -2
-90 l-4 -89 36 1 36 1 0 138 c0 75 3 144 6 153 5 13 -1 16 -33 16 -37 0 -41
-3 -85 -70 l-46 -70 -30 54 c-39 69 -57 86 -90 86 l-27 0 -3 -155z"/>
<path d="M2964 2482 c-37 -30 -37 -51 0 -88 41 -41 55 -42 95 -8 37 31 39 57
6 89 -28 29 -71 32 -101 7z"/>
<path d="M7026 2469 c-29 -34 -31 -47 -13 -69 32 -39 45 -43 79 -22 31 18 60
20 578 26 607 8 677 13 641 49 -9 9 -149 12 -600 13 -527 1 -591 3 -612 18
-33 23 -44 20 -73 -15z"/>
<path d="M2008 2460 c-108 -3 -200 -9 -205 -13 -4 -5 0 -15 10 -22 23 -17 392
-27 801 -23 l300 3 1 28 c1 18 -3 28 -14 29 -35 4 -709 3 -893 -2z"/>
<path d="M3627 2432 c-3 -4 -3 -19 0 -35 5 -26 8 -27 68 -27 82 0 95 6 95 41
l0 29 -79 0 c-44 0 -82 -3 -84 -8z"/>
<path d="M3929 1903 c-67 -34 -91 -72 -86 -139 4 -60 32 -105 81 -128 45 -21
114 -20 148 2 26 17 27 19 12 40 -15 22 -44 30 -44 12 0 -5 -16 -10 -35 -10
-44 0 -93 42 -101 87 -12 62 62 103 130 71 22 -9 29 -8 46 7 26 23 25 31 -5
51 -49 32 -91 34 -146 7z"/>
<path d="M5676 1913 l-29 -5 7 -81 c3 -45 6 -110 6 -143 l0 -61 93 -6 c50 -3
96 -1 101 3 15 15 -22 60 -48 60 -13 0 -38 3 -55 6 -27 6 -31 10 -31 40 0 33
1 34 43 34 43 0 67 13 67 37 0 9 -17 13 -60 13 -57 0 -60 1 -60 25 0 23 3 24
68 27 64 3 67 4 67 28 0 24 -2 25 -70 26 -38 1 -83 -1 -99 -3z"/>
<path d="M6013 1898 c-18 -13 -37 -33 -42 -45 -14 -31 23 -74 88 -102 62 -26
70 -39 41 -63 -27 -22 -56 -23 -64 -3 -7 20 -55 19 -63 -2 -8 -22 37 -60 80
-68 46 -9 102 16 127 57 11 18 20 39 20 46 0 21 -59 69 -106 87 -31 12 -44 22
-44 36 0 21 23 25 64 9 32 -12 76 3 76 25 0 19 -62 45 -109 45 -22 0 -49 -9
-68 -22z"/>
<path d="M4231 1768 c4 -79 7 -144 8 -145 0 -2 39 -3 86 -3 l85 0 0 30 c0 30
-1 30 -54 30 -40 0 -55 4 -60 16 -3 9 -6 60 -6 115 l0 99 -32 0 -33 0 6 -142z"/>
<path d="M4615 1898 c-93 -33 -122 -133 -60 -213 44 -59 113 -80 178 -56 66
25 107 143 73 210 -33 62 -112 87 -191 59z m108 -68 c35 -28 41 -53 22 -94
-32 -67 -107 -70 -141 -4 -21 41 -17 74 12 97 34 27 74 27 107 1z"/>
<path d="M4922 1883 c2 -22 9 -29 33 -33 l30 -5 3 -113 3 -112 34 0 35 0 0
115 0 115 45 0 c43 0 45 1 45 30 l0 30 -116 0 -115 0 3 -27z"/>
<path d="M5277 1903 c-9 -8 -9 -141 -1 -222 6 -57 8 -61 33 -61 25 0 26 2 22
51 -4 61 4 69 72 69 l47 0 0 -59 c0 -52 2 -59 23 -65 12 -3 25 -6 30 -6 4 0 6
66 5 148 l-3 147 -35 0 c-35 0 -35 -1 -38 -46 -3 -45 -4 -47 -40 -53 -66 -11
-65 -11 -57 49 l6 55 -29 0 c-16 0 -32 -3 -35 -7z"/>
</g>
</svg>
